<?xml version="1.0" encoding="utf-8"?>
<!-- Generator: Adobe Illustrator 24.1.0, SVG Export Plug-In . SVG Version: 6.00 Build 0)  -->
<svg version="1.1" id="Layer_1" xmlns="http://www.w3.org/2000/svg" xmlns:xlink="http://www.w3.org/1999/xlink" x="0px" y="0px"
	 viewBox="0 0 304.5772 207.5502" enable-background="new 0 0 304.5772 207.5502" xml:space="preserve">
<polyline fill="none" stroke="#000000" stroke-width="2" points="299.3266,13.2386 286.3266,24.7386 272.8266,36.7386 
	258.8266,49.2386 244.8266,61.7386 231.8266,74.2386 218.8266,86.2386 206.3266,97.7386 194.3266,109.7386 182.3266,121.7386 
	170.8266,133.7386 157.8266,146.2386 144.8266,158.2386 131.8266,170.2386 118.8266,182.7386 106.8266,195.2386 "/>
<polyline fill="none" stroke="#000000" stroke-width="2" points="147.8266,194.2386 160.3266,181.7386 172.8266,169.2386 
	185.3266,157.7386 197.3266,145.2386 209.3266,133.2386 221.3266,121.2386 233.8266,109.2386 245.8266,96.7386 258.3266,84.2386 
	270.3266,72.2386 282.3266,60.7386 294.8266,48.2386 "/>
<polyline fill="none" stroke="#000000" stroke-width="2" points="297.3266,36.2386 284.8266,48.2386 271.3266,60.7386 
	258.3266,73.2386 244.8266,85.2386 231.8266,98.2386 218.8266,110.2386 206.3266,121.7386 194.3266,133.7386 182.8266,145.7386 
	170.8266,158.2386 157.8266,169.7386 145.8266,181.7386 134.3266,194.2386 "/>
<polyline fill="none" stroke="#000000" stroke-width="2" points="187.8266,200.2386 199.8266,187.7386 211.8266,175.7386 
	224.8266,163.7386 237.8266,151.7386 250.3266,139.7386 262.3266,126.7386 274.8266,114.7386 288.3266,103.2386 301.3266,90.7386 
	"/>
<polyline fill="none" stroke="#000000" stroke-width="2" points="298.3266,104.2386 286.3266,116.2386 273.8266,128.2386 
	261.3266,139.7386 248.8266,151.7386 236.3266,163.2386 223.8266,174.7386 211.3266,186.7386 198.8266,198.2386 "/>
<line fill="none" stroke="#000000" stroke-width="2" x1="286.3266" y1="204.2386" x2="297.8266" y2="191.2386"/>
<polyline fill="none" stroke="#000000" stroke-width="2" points="296.3266,178.7386 283.8266,190.7386 271.3266,202.2386 "/>
<polyline fill="none" stroke="#000000" stroke-width="2" points="256.8266,198.7386 269.8266,186.2386 282.3266,173.2386 
	294.3266,161.2386 "/>
<polyline fill="none" stroke="#000000" stroke-width="2" points="295.8266,149.2386 283.3266,161.7386 271.3266,174.7386 
	258.8266,187.7386 246.8266,200.2386 "/>
<polyline fill="none" stroke="#000000" stroke-width="2" points="234.8266,200.2386 247.3266,187.7386 259.8266,175.2386 
	272.3266,162.2386 284.8266,149.2386 296.8266,137.2386 "/>
<polyline fill="none" stroke="#000000" stroke-width="2" points="295.8266,125.7386 283.8266,138.2386 271.8266,151.2386 
	259.3266,163.7386 246.8266,175.7386 234.3266,187.7386 221.3266,199.7386 "/>
<polyline fill="none" stroke="#000000" stroke-width="2" points="209.8266,196.7386 221.8266,185.2386 234.3266,173.2386 
	246.8266,162.2386 259.3266,151.2386 271.8266,139.7386 284.3266,127.7386 296.8266,115.7386 "/>
<line fill="none" stroke="#000000" stroke-width="2" x1="299.3266" y1="122.2386" x2="286.3266" y2="122.7386"/>
<line fill="none" stroke="#000000" stroke-width="2" x1="283.8266" y1="133.2386" x2="296.8266" y2="133.2386"/>
<polyline fill="none" stroke="#000000" stroke-width="2" points="296.8266,109.2386 283.3266,109.2386 270.8266,110.2386 "/>
<line fill="none" stroke="#000000" stroke-width="2" x1="270.3266" y1="120.2386" x2="258.3266" y2="120.7386"/>
<polyline fill="none" stroke="#000000" stroke-width="2" points="297.8266,77.2386 285.3266,89.2386 273.3266,101.7386 
	261.3266,114.2386 249.3266,125.7386 236.8266,137.2386 224.8266,148.7386 211.8266,160.2386 198.8266,171.7386 186.3266,183.7386 
	173.3266,196.2386 "/>
<polyline fill="none" stroke="#000000" stroke-width="2" points="160.3266,192.2386 172.8266,180.2386 185.8266,168.7386 
	197.8266,157.2386 210.3266,145.7386 223.3266,134.2386 236.3266,122.7386 247.8266,110.2386 259.3266,98.2386 270.3266,86.2386 
	281.8266,74.7386 293.8266,62.7386 "/>
<polyline fill="none" stroke="#000000" stroke-width="2" points="295.8266,26.2386 283.3266,38.2386 271.3266,49.2386 
	259.3266,61.2386 246.8266,73.2386 233.8266,85.7386 220.3266,97.2386 207.3266,108.7386 194.8266,121.2386 181.3266,133.7386 
	169.3266,145.7386 156.8266,158.2386 144.8266,170.2386 132.8266,181.7386 120.8266,193.2386 "/>
<polyline fill="none" stroke="#000000" stroke-width="2" points="96.8266,193.7386 108.8266,181.2386 120.8266,169.7386 
	132.3266,157.7386 143.3266,145.2386 155.8266,133.2386 168.8266,121.2386 181.8266,109.7386 195.3266,98.2386 207.8266,86.7386 
	220.8266,74.7386 234.3266,63.2386 246.8266,51.2386 259.8266,39.7386 272.8266,27.7386 285.3266,16.2386 "/>
<polyline fill="none" stroke="#000000" stroke-width="2" points="270.3266,16.7386 257.8266,28.7386 245.3266,39.7386 
	232.8266,50.2386 219.8266,61.2386 206.8266,72.7386 193.8266,83.7386 181.3266,95.7386 169.3266,107.7386 156.3266,119.2386 
	143.8266,131.2386 132.3266,143.2386 120.8266,156.2386 108.8266,168.2386 96.8266,180.2386 85.3266,192.7386 "/>
<polyline fill="none" stroke="#000000" stroke-width="2" points="72.8266,194.7386 84.8266,182.2386 97.3266,169.2386 
	110.3266,157.2386 122.8266,145.2386 135.3266,133.2386 147.3266,120.7386 160.3266,108.7386 173.8266,97.2386 187.3266,85.7386 
	199.8266,73.7386 211.8266,62.7386 224.8266,51.2386 237.3266,39.2386 250.3266,27.2386 "/>
<polyline fill="none" stroke="#000000" stroke-width="2" points="235.3266,26.2386 223.3266,38.2386 210.8266,50.2386 
	198.3266,62.7386 186.3266,75.2386 173.8266,87.2386 161.3266,99.2386 148.8266,111.7386 136.8266,123.7386 124.3266,135.7386 
	111.8266,147.2386 99.3266,158.7386 85.8266,170.2386 72.3266,182.2386 59.3266,194.2386 "/>
<polyline fill="none" stroke="#000000" stroke-width="2" points="45.8266,193.7386 59.3266,182.2386 72.3266,170.7386 
	85.8266,159.2386 99.8266,147.7386 112.8266,136.2386 125.3266,123.7386 136.8266,111.7386 148.3266,99.7386 159.8266,87.7386 
	172.3266,75.7386 184.8266,63.2386 197.3266,50.7386 209.8266,39.2386 222.8266,27.7386 235.3266,16.2386 "/>
<polyline fill="none" stroke="#000000" stroke-width="2" points="23.8266,190.7386 36.3266,190.2386 48.8266,189.7386 
	61.3266,190.2386 74.3266,190.7386 86.8266,190.7386 98.8266,190.7386 111.8266,190.2386 124.3266,189.2386 137.8266,188.7386 
	150.3266,188.2386 162.3266,187.7386 173.8266,186.7386 185.3266,186.2386 197.3266,185.2386 208.8266,184.7386 220.8266,183.7386 
	233.3266,183.2386 245.8266,182.7386 257.8266,182.2386 269.8266,182.2386 282.3266,181.2386 295.8266,180.7386 "/>
<polyline fill="none" stroke="#000000" stroke-width="2" points="83.3266,134.2386 96.3266,133.2386 108.8266,133.7386 
	120.8266,133.2386 133.8266,132.7386 146.3266,132.2386 158.8266,131.2386 "/>
<polyline fill="none" stroke="#000000" stroke-width="2" points="172.8266,116.2386 159.8266,117.2386 146.3266,118.2386 
	133.3266,118.7386 120.8266,119.7386 108.8266,120.7386 96.8266,121.2386 84.8266,121.7386 "/>
<polyline fill="none" stroke="#000000" stroke-width="2" points="72.8266,111.7386 84.8266,111.2386 97.3266,111.2386 
	110.3266,110.7386 122.3266,110.2386 134.8266,110.2386 148.3266,109.7386 161.3266,109.2386 174.8266,108.7386 187.8266,107.2386 
	199.8266,106.2386 211.8266,105.7386 224.3266,105.2386 236.3266,104.2386 248.8266,103.2386 260.8266,102.2386 "/>
<polyline fill="none" stroke="#000000" stroke-width="2" points="22.3266,155.2386 35.3266,154.2386 48.3266,153.7386 
	60.3266,153.2386 72.3266,152.2386 84.3266,151.7386 96.8266,150.7386 110.3266,150.2386 122.8266,150.2386 135.3266,149.7386 
	147.8266,149.2386 160.3266,149.2386 172.8266,148.2386 185.3266,147.2386 198.3266,146.2386 211.3266,145.2386 223.8266,145.2386 
	235.8266,145.2386 248.3266,144.7386 260.8266,144.7386 273.3266,144.7386 286.3266,143.2386 298.3266,142.7386 "/>
<polyline fill="none" stroke="#000000" stroke-width="2" points="20.8266,143.2386 33.3266,142.7386 45.8266,142.7386 
	58.3266,142.2386 70.8266,140.7386 83.8266,139.2386 96.8266,138.2386 110.3266,138.2386 123.3266,137.2386 135.8266,135.7386 
	147.8266,134.7386 160.3266,134.7386 173.3266,135.2386 186.3266,135.7386 199.3266,135.7386 212.3266,134.7386 224.8266,134.7386 
	236.8266,134.7386 248.8266,134.2386 260.3266,133.7386 272.8266,133.2386 285.3266,132.7386 298.8266,132.2386 "/>
<polyline fill="none" stroke="#000000" stroke-width="2" points="295.3266,85.2386 283.3266,85.7386 270.8266,85.7386 
	257.8266,86.7386 245.3266,87.7386 233.3266,88.2386 220.8266,89.2386 208.8266,89.7386 196.8266,90.7386 184.8266,91.7386 
	172.3266,91.7386 160.3266,91.7386 147.3266,92.7386 135.8266,93.7386 123.8266,95.2386 110.8266,95.7386 97.3266,96.7386 
	85.3266,96.7386 73.3266,95.7386 60.8266,95.2386 47.3266,95.7386 35.3266,96.7386 "/>
<polyline fill="none" stroke="#000000" stroke-width="2" points="299.3266,81.2386 286.8266,82.2386 274.8266,82.7386 
	262.8266,83.7386 249.8266,84.7386 236.3266,85.2386 223.3266,85.7386 209.8266,86.2386 197.3266,86.7386 185.3266,86.7386 
	172.3266,87.2386 159.8266,87.7386 147.8266,87.7386 135.3266,88.2386 121.8266,89.2386 108.8266,89.7386 95.8266,90.2386 
	83.3266,90.2386 70.3266,90.7386 57.8266,92.2386 44.8266,92.7386 32.3266,93.2386 19.8266,93.7386 "/>
<polyline fill="none" stroke="#000000" stroke-width="2" points="10.3266,105.2386 22.8266,105.2386 34.3266,104.7386 
	46.8266,103.2386 59.3266,101.7386 72.3266,100.7386 84.3266,100.2386 95.8266,100.7386 107.8266,100.7386 120.3266,100.7386 
	132.8266,100.2386 145.3266,99.7386 157.8266,98.7386 171.3266,98.2386 184.3266,98.2386 196.8266,97.7386 209.8266,97.2386 
	222.8266,96.7386 235.8266,96.2386 248.3266,96.2386 260.8266,96.2386 273.3266,95.7386 285.8266,94.7386 298.3266,93.2386 "/>
<polyline fill="none" stroke="#000000" stroke-width="2" points="296.3266,169.2386 283.3266,169.2386 270.3266,169.7386 
	258.3266,170.2386 246.3266,170.2386 234.3266,170.7386 222.8266,171.2386 210.8266,172.2386 198.3266,172.7386 186.3266,173.2386 
	173.8266,173.2386 161.3266,174.2386 149.3266,174.2386 136.3266,174.7386 122.8266,174.7386 110.3266,175.2386 98.8266,175.2386 
	86.8266,174.7386 73.8266,175.7386 60.8266,177.2386 47.8266,178.2386 34.8266,178.7386 23.3266,179.7386 "/>
<polyline fill="none" stroke="#000000" stroke-width="2" points="21.8266,165.2386 34.3266,165.2386 47.3266,165.7386 
	60.3266,165.7386 73.3266,165.7386 85.3266,164.7386 97.3266,163.7386 109.3266,162.7386 120.8266,161.2386 132.8266,160.2386 
	145.3266,159.2386 158.8266,159.7386 171.8266,160.2386 185.3266,160.2386 198.8266,160.7386 212.3266,160.7386 224.3266,160.2386 
	236.8266,159.7386 249.3266,158.7386 261.8266,158.2386 274.3266,157.7386 287.3266,156.7386 299.8266,155.7386 "/>
<polyline fill="none" stroke="#000000" stroke-width="2" points="299.3266,119.7386 287.8266,119.7386 275.8266,119.7386 
	262.3266,120.2386 248.8266,121.2386 235.8266,121.7386 222.3266,122.2386 209.3266,122.7386 196.8266,122.7386 183.3266,122.7386 
	170.8266,122.7386 158.3266,122.7386 145.8266,123.2386 133.3266,124.2386 121.8266,125.2386 109.8266,126.2386 97.3266,127.2386 
	84.3266,127.7386 71.8266,129.2386 58.3266,130.2386 44.8266,130.7386 32.3266,131.2386 19.3266,131.2386 "/>
<polyline fill="none" stroke="#000000" stroke-width="2" points="7.8266,116.7386 19.8266,115.7386 31.8266,114.2386 
	44.3266,113.7386 56.3266,113.7386 68.8266,113.7386 81.8266,113.7386 94.8266,113.2386 107.8266,112.7386 120.3266,112.2386 
	132.8266,111.2386 145.3266,110.7386 157.8266,110.7386 169.8266,110.7386 182.3266,111.2386 194.8266,110.7386 208.3266,110.7386 
	221.8266,110.7386 234.8266,110.7386 247.3266,110.7386 259.8266,109.7386 272.3266,108.7386 284.8266,107.7386 297.8266,106.7386 
	"/>
</svg>
